<?xml version="1.0" encoding="UTF-8"?>
<svg id="Livello_2" data-name="Livello 2" xmlns="http://www.w3.org/2000/svg" viewBox="0 0 508.34 566.79">
  <defs>
    <style>
      .cls-1 {
        stroke-width: 0px;
      }
    </style>
  </defs>
  <path class="cls-1" d="M189.53,455.73c-7.56-2.2-12.26-3.5-16.92-4.92-83.23-25.36-126-120.88-89.25-199.59,31.42-67.29,82.38-115.12,149.39-145.43,29.93-13.54,61.41-23.84,92.62-34.33,48.47-16.29,98.61-28.93,134.59-71.46,1.56,3.35,2.6,5.02,3.14,6.84,28.43,95.63,48.97,192.46,44.65,293.08-2.38,55.54-12.31,109.24-39.93,158.28-24.38,43.28-57.78,75.74-108.39,86.64-43.61,9.39-102.24-13.09-124.92-48.81,90.44-84.58,149.32-188.34,182.21-307.76-1.48,2.47-3.21,4.83-4.39,7.44-49.78,109.23-120.07,202.8-214.87,276.84-46.41,36.25-96.75,66.72-151.37,89.44-6.84,2.85-14.6,4.48-22.01,4.77-14.19.55-23.27-7.21-24.04-18.87-.74-11.25,6.36-17.8,22.05-18.7,64.01-3.69,113.77-39.09,167.43-73.45Z"/>
</svg>