<?xml version="1.0" encoding="UTF-8"?>
<svg id="Livello_2" data-name="Livello 2" xmlns="http://www.w3.org/2000/svg" viewBox="0 0 508.34 743.74">
  <defs>
    <style>
      .cls-1 {
        stroke-width: 0px;
      }
    </style>
  </defs>
  <path class="cls-1" d="M508.34,255.41v4.15c-.69,8.24-1.15,16.5-2.12,24.71-3.56,30.06-11.91,58.94-22.29,87.26-19.89,54.25-46.37,105.31-75.65,154.97-42.99,72.92-91.49,142.07-143.59,208.74-2.17,2.77-4.46,5.44-6.97,8.49-3.25-3.81-6.18-7.1-8.95-10.52-47.24-58.54-90.36-120.02-130.04-183.9-33.7-54.26-64.52-110.05-88.3-169.49-13.16-32.91-23.89-66.51-28.39-101.84C1.24,271.58.68,265.15,0,258.73c0-4.42,0-8.85,0-13.27.64-7.55,1.06-15.12,1.95-22.64,5.37-45.3,21.57-86.35,49.61-122.35C94.89,44.84,151.59,11.94,221.61,2.46,230.34,1.27,239.17.8,247.95,0c4.42,0,8.85,0,13.27,0,1.21.21,2.41.56,3.63.61,42.08,1.78,81.61,12.78,117.49,34.83,71.63,44.02,112.21,108.47,123.52,191.54,1.28,9.42,1.67,18.95,2.48,28.44ZM254.26,100.72c-86.81-.15-157.03,70.14-157.33,157.47-.29,86.02,70.31,156.41,157.24,156.74,85.99.33,156.96-70.31,157.14-156.43.19-87.04-70.07-157.63-157.05-157.77Z"/>
</svg>