<?xml version="1.0" encoding="UTF-8"?>
<svg id="Livello_2" data-name="Livello 2" xmlns="http://www.w3.org/2000/svg" viewBox="0 0 508.34 513.95">
  <defs>
    <style>
      .cls-1 {
        stroke-width: 0px;
      }
    </style>
  </defs>
  <path class="cls-1" d="M253.75,515.15C113.18,515.14-.04,400.15,0,257.44.04,114.88,113.43-.04,254.02,0c140.65.04,254.39,115.1,254.32,257.25-.07,143.22-113.29,257.9-254.59,257.89ZM288.86,310.72h-.06c0-29.55.07-59.11-.02-88.66-.07-21.63-14.35-37.17-34.22-37.54-19.54-.37-35.13,15.3-35.24,36.69-.3,58.78-.29,117.56-.07,176.34.08,22.28,15.14,38.19,34.96,38.09,19.96-.1,34.49-15.94,34.63-38.22.17-28.9.04-57.79.04-86.69ZM222.11,126.89c.02,17.96,14.21,32.44,31.88,32.53,17.78.09,32.9-15.33,32.54-33.2-.37-17.91-14.82-31.99-32.71-31.87-18,.12-31.73,14.21-31.71,32.54Z"/>
</svg>