<?xml version="1.0" encoding="UTF-8"?>
<svg id="Livello_2" data-name="Livello 2" xmlns="http://www.w3.org/2000/svg" viewBox="0 0 446.46 786.74">
  <defs>
    <style>
      .cls-1 {
        stroke-width: 0px;
      }

      .cls-2 {
        stroke: #fff;
        stroke-miterlimit: 10;
        stroke-width: 2px;
      }
    </style>
  </defs>
  <path class="cls-2" d="M254.14,303.18c-1.08,6.18-2.32,12.33-3.22,18.53-5.79,39.57-11.4,79.17-17.3,118.73-2.59,17.33,2.73,31.31,16.44,42.1,28.61,22.51,57.2,45.04,85.92,67.41,16.42,12.79,25.21,29.81,29.43,49.84,9.89,46.91,19.99,93.77,30.19,140.61,4.89,22.46-5.35,38.96-27.9,44.14-25.6,5.88-41.61-3.9-47.1-29.06-8.97-41.07-17.97-82.13-26.56-123.28-2.98-14.27-9.9-25.44-21.36-34.4-37.58-29.37-74.54-59.54-112.53-88.35-29.45-22.33-40.6-51.59-35.66-87.03,10.45-74.9,21.65-149.7,32.85-224.49,4.08-27.21,26.59-43.42,53.68-39.59,6.09.86,12.2,1.59,18.27,2.58,15.88,2.6,26.62,12.4,34.94,25.41,16.86,26.35,33.86,52.61,50.41,79.16,6.76,10.84,15.61,16.02,28.55,15.77,22.56-.44,45.14-.35,67.69.12,27.4.57,43.69,26.63,31.44,50.12-6.04,11.58-16.08,18.04-29.21,18.1-34.87.16-69.75.17-104.62-.4-15.21-.25-27.6-6.6-35.58-20.49-5.14-8.95-11.15-17.4-16.78-26.07l-2,.55Z"/>
  <path class="cls-2" d="M145.66,189.8c-3.18,21.32-6.63,44.66-10.15,67.98-5.85,38.78-11.63,77.58-17.68,116.34-2.45,15.66-12.76,22.65-28.63,20.25-22.55-3.42-45.11-6.8-67.68-10.16-16.17-2.4-23.92-12.16-21.58-28.42,4.85-33.74,10.08-67.43,15.15-101.15,2.48-16.48,4.67-33.01,7.51-49.42,5.48-31.61,32.31-51.17,64.15-46.99,12.71,1.67,25.39,3.54,38.04,5.55,13.87,2.19,21.39,10.97,20.85,26.04Z"/>
  <path class="cls-2" d="M122.24,488.22c15.08,24.43,38.2,37.2,57.82,53.83,3.67,3.11,4.6,5.82,3.3,10.52-16.24,58.8-32.25,117.65-48.33,176.49-2.63,9.64-5.11,19.33-8,28.9-6.52,21.62-26.48,33.08-47.15,27.3-20.77-5.81-32.47-25.94-26.67-47.54,15.17-56.43,30.77-112.75,46.2-169.12,6.63-24.23,13.28-48.45,19.96-72.66.53-1.9,1.37-3.72,2.86-7.72Z"/>
  <path class="cls-2" d="M228.43,137.78c-38.16-.43-68.49-31.24-68.38-69.46C160.17,30.66,191.79-.36,229.7,0c38.34.37,68.79,31.76,68.26,70.36-.52,37.47-31.84,67.84-69.52,67.42Z"/>
  <path class="cls-1" d="M432.76,571.65c0,65.89,0,131.79-.02,197.68,0,3.07,0,6.18-.49,9.19-.87,5.3-4.59,8.99-9.54,7.71-3.37-.87-6.15-5.04-8.53-8.23-1.01-1.36-.4-3.98-.4-6.03-.02-133.58-.04-267.17.06-400.75,0-2.56.72-6.79,2.21-7.36,4.66-1.78,9.83-2.3,14.85-2.9.42-.05,1.63,2.92,1.73,4.54.26,4.09.12,8.2.12,12.3,0,64.61,0,129.23,0,193.84Z"/>
  <path class="cls-1" d="M432.29,271.19c-5.63-1.13-10.04-1.46-13.96-3.03-1.99-.8-4.33-3.79-4.38-5.85-.36-14.83-.3-29.67-.1-44.5.07-5.36,2.44-9.56,8.43-10.07,5.33-.45,9.71,2.09,9.84,7.43.44,18.3.17,36.62.17,56.02Z"/>
</svg>