<?xml version="1.0" encoding="UTF-8"?>
<svg id="Livello_2" data-name="Livello 2" xmlns="http://www.w3.org/2000/svg" viewBox="0 0 508.34 525.36">
  <defs>
    <style>
      .cls-1 {
        stroke-width: 0px;
      }
    </style>
  </defs>
  <path class="cls-1" d="M80.55,461.76c-3.8,8.06-8.08,15.93-11.29,24.22-4.2,10.83-7.71,21.94-11.21,33.02-1.39,4.4-3.6,6.44-8.45,6.35-14.61-.25-29.24-.26-43.85-.05-4.88.07-6.53-1.66-5.41-6.33,4.53-18.79,8.48-37.74,13.66-56.34,8-28.71,17.72-56.83,31.24-83.53,15.55-30.69,40.95-48.07,73.81-55.89,5.9-1.4,8.43.58,10.54,5.96,9.63,24.61,19.64,49.06,29.54,73.57.13.32.56.52,1.83,1.67,1.51-3.03,2.71-5.91,4.3-8.55,4.71-7.8,4.06-15.11.27-23.39-6.98-15.23-12.81-30.98-19.09-46.52-2.15-5.33-1.42-6.64,4.5-7.1,5.9-.46,11.85-.36,17.75-.76,9.44-.64,18.87-1.48,28.31-2.24,2.88-.23,5.76-.47,10.18-.82-13.98,34.68-27.49,68.19-41.49,102.93,6.26,0,11.63.28,16.94-.21,1.2-.11,2.48-2.77,3.18-4.47,13-31.97,25.98-63.94,38.8-95.98,2.11-5.29,4.46-9.35,10.41-11.69,34.38-13.54,60.11-38.04,81.75-67.06,13.08-17.54,24.86-36.04,37.24-54.1,2.23-3.25,4.84-6.29,6.69-9.73,1.76-3.27,3.89-6.94,3.91-10.44.26-49.39.18-98.77.19-148.16C364.81,5.61,368.82,0,376.29,0c7.59,0,11.64,5.54,11.64,15.93.02,47.81.11,95.61-.04,143.42-.01,4.87,1.28,7.9,5.6,10.51,9.76,5.91,13.61,17.76,9.42,29.11-3.76,10.16-8.41,19.99-12.37,30.07-1.33,3.39-2.4,7.12-2.47,10.72-.27,14.42.06,28.84-.21,43.26-.06,3.17-1.06,6.69-2.71,9.39-2.66,4.35-7.33,5.39-12.04,3.97-4.97-1.5-7.8-5.32-8.16-10.53-.28-4.01-.05-8.06-.05-12.09-.62-.13-1.24-.26-1.87-.39-1.88,2.4-3.72,4.83-5.63,7.2-16.62,20.57-33.61,40.85-49.78,61.76-18.67,24.14-29.65,51.79-35.85,81.63-6.37,30.67-5.48,61.67-5.63,92.65-.04,8.41-.18,8.59-8.71,8.59-55.31.01-110.63.02-165.94.02-7.93,0-8.25-.32-8.25-8.49-.02-16,.03-32-.03-48,0-2.18-.44-4.36-.68-6.53-.66-.14-1.31-.29-1.97-.43ZM201.77,460.54c0-7.49.1-14.98-.03-22.46-.14-7.92-3.23-11.09-11.23-11.21-10.64-.16-21.28-.13-31.92.04-7.53.12-10.98,3.38-11.06,10.79-.18,14.97-.16,29.95,0,44.92.07,7.22,2.84,10.15,10.08,10.31,11.42.26,22.86.23,34.28,0,6.88-.14,9.65-3.06,9.84-9.92.2-7.48.05-14.97.05-22.46Z"/>
  <path class="cls-1" d="M248.6,218.48c.07,39.97-32.23,72.5-72.09,72.6-39.72.09-72.79-32.68-72.78-72.12.01-40.24,32.5-72.81,72.59-72.78,40.02.03,72.2,32.23,72.28,72.3Z"/>
  <path class="cls-1" d="M508.34,79.07c-37.84,20.22-74.17,39.62-111.5,59.56V19.53c37.27,19.9,73.6,39.3,111.5,59.54Z"/>
</svg>