<?xml version="1.0" encoding="UTF-8"?>
<svg id="Livello_2" data-name="Livello 2" xmlns="http://www.w3.org/2000/svg" viewBox="0 0 508.34 354.33">
  <defs>
    <style>
      .cls-1 {
        stroke-width: 0px;
      }
    </style>
  </defs>
  <path class="cls-1" d="M401.56,353.92c-44.05-.28-82.54-26.52-97.95-68.27-4.62-12.51-6.11-26.18-8.95-39.34-2.38-11-4.4-22.09-7.15-33-.5-1.99-3.73-4.64-5.76-4.69-18.59-.4-37.2-.41-55.8-.12-1.82.03-4.8,2.62-5.21,4.47-3.41,15.37-6.86,30.76-9.32,46.3-6.14,38.9-25.49,68.04-61.64,84.91-27.08,12.64-54.99,13.48-82.57,2.41-28.45-11.42-48.78-31.59-59.98-60.56-8.72-22.58-9.5-45.6-2.63-68.47,2.8-9.32,8.87-17.69,13.66-26.39,19.71-35.81,39.67-71.47,59.15-107.4,8.02-14.79,14.51-30.42,22.71-45.11C115.89,10.4,151.95-5.23,183.55,1.59c32.74,7.06,53.23,27.42,62.12,59.05,3.87,13.78,3.47,28.24-1.21,42.24-1.66,4.97-2.6,10.18-3.8,15.29-.84,3.6.07,5.84,4.38,5.74,6.01-.14,12.03-.01,18.04-.04,3.63-.02,5.05-1.52,4.04-5.36-1.99-7.61-3.68-15.31-5.47-22.97-7.74-33.04,10.24-71.24,40.66-86.4,38.64-19.26,82.88-7.17,105.33,29.26,4.57,7.42,6.89,16.2,11.08,23.91,17.45,32.12,35.21,64.07,52.87,96.08,10.05,18.22,20.86,36.07,29.91,54.77,6.8,14.06,7.92,29.82,6,45.26-3.48,28.01-15.17,52-37.18,70.39-19.91,16.64-42.72,25.29-68.76,25.1ZM473.22,247.82c-.05-39.08-32.23-70.84-71.63-70.72-39.06.13-71.38,32.52-70.8,71.67.6,40.43,33.75,70.66,70.91,70.38,39.95-.3,71.58-31.62,71.52-71.34ZM176.85,248.62c.32-39.23-30.82-70.96-70.14-71.47-39.48-.51-71.75,31.22-72.07,70.87-.31,38.76,31.6,70.46,70.67,71.22,39.17.76,72.54-33.02,71.54-70.62Z"/>
  <path class="cls-1" d="M348.98,244.6c2.02-25.67,21.72-47.92,50.67-49.83,4.35-.29,7.83,1.45,7.94,5.96.1,4.24-3.2,5.84-7.32,5.99-22.19.8-39.26,20.09-39.38,38.91-.03,4.32-1.6,7.98-6.63,8.08-3.45.07-5.46-3.78-5.28-9.11Z"/>
  <path class="cls-1" d="M52.52,245.09c2.4-28.19,23.38-48.21,50.73-50.29,4.18-.32,8.04,1.33,8.19,5.75.15,4.42-3.52,6.02-7.77,6.19-21.33.83-38.85,19.62-39.09,39.17-.05,4.23-1.76,7.87-6.26,7.73-4.91-.16-6.22-4.08-5.8-8.55Z"/>
</svg>