<?xml version="1.0" encoding="UTF-8"?>
<svg id="Livello_2" data-name="Livello 2" xmlns="http://www.w3.org/2000/svg" viewBox="0 0 508.34 601.1">
  <defs>
    <style>
      .cls-1 {
        stroke-width: 0px;
      }
    </style>
  </defs>
  <path class="cls-1" d="M295,332.14c-.88,1.36-1.51,2.87-1.51,2.87,24.21,23.37,49.02,44.97,70.93,69.2,16.28,18.03,28.87,39.42,42.94,59.41,15.57,22.1,31.02,44.28,46.4,66.52,9.09,13.15,12.32,27.23,5.94,42.61-13.02,31.38-51.08,38.27-73.53,12.74-9.73-11.07-17.77-23.64-26.5-35.6-16.82-23.05-33.76-46.01-50.28-69.28-9.53-13.44-20.72-25.02-33.71-35.13-26.6-20.65-52.87-41.76-79.37-62.56-33.48-26.26-40.65-60.28-20.89-98.16,14.4-27.58,28.41-55.36,42.52-83.08,4.19-8.24,4.07-8.31-4.03-12.14q-17.4-8.23-29.37,6.99c-13.22,16.89-26.33,33.88-39.53,50.8-9.95,12.75-22.37,20.6-39.22,19.08-15.99-1.44-28.12-8.83-34.86-23.76-6.89-15.31-5.95-30.16,4.19-43.81,7.42-9.99,15.3-19.64,23.08-29.35,16.21-20.28,32.41-40.56,48.78-60.71,18.27-22.52,37.18-27.09,63.82-15.39,55,24.18,109.94,48.47,164.89,72.75,12.13,5.36,13.95,4.75,20.46-6.52,10.3-17.83,20.53-35.73,31.2-53.34,12.05-19.87,32.67-28.02,52.19-21.22,23.68,8.25,36.09,36.31,24.3,58.36-19.73,36.89-40.21,73.39-61.24,109.54-11.72,20.14-34.48,26.49-57.48,17.49-11.58-4.53-22.95-9.63-34.24-14.85-4.2-1.94-6.31-1.2-8.77,2.72-15.56,24.69-31.37,49.2-47.08,73.8Z"/>
  <path class="cls-1" d="M229.83,450.51c-10.98,17.67-21.39,35.8-33.61,52.59-15.14,20.81-42.2,24.71-62.85,9.21-39.47-29.63-78.55-59.77-117.36-90.27-18.65-14.64-21.18-43.63-6.68-62.78,14.9-19.7,42.43-24.83,62.62-10.44,20.96,14.94,41.08,31.06,61.58,46.64,4.22,3.22,8.52,6.35,13.21,9.83,3.26-4.51,5.99-8.58,9.03-12.4,2.97-3.76,6.35-5.79,9.88-6.13,3.89-.36,7.08,1.49,8.73,2.56,9.99,6.44,40.85,32.06,51.93,43.41.19.13.39.27.57.42,1.11.89,2.12,2.02,3.03,3.36,3.15,4.7,2.67,9.62-.06,14Z"/>
  <path class="cls-1" d="M409.6,63.16c-.01,34.95-28.41,62.75-64.04,62.7-34.87-.05-62.58-28.24-62.41-63.48C283.31,27.47,311.33-.01,346.73,0c34.88.01,62.87,28.14,62.87,63.16Z"/>
</svg>