<?xml version="1.0" encoding="UTF-8"?>
<svg id="Livello_1" data-name="Livello 1" xmlns="http://www.w3.org/2000/svg" viewBox="0 0 580.58 702.4">
  <defs>
    <style>
      .cls-1 {
        fill: #b3b2b2;
      }

      .cls-1, .cls-2 {
        stroke-width: 0px;
      }

      .cls-2 {
        fill: #d05e47;
      }
    </style>
  </defs>
  <path class="cls-1" d="M95.16,65.77c-.83,1.29-1.58,2.24-2.08,3.36-1.91,3.87-4.08,7.66-5.41,11.79-1.25,3.79-.83,7.66,1.41,11.53,3.16,5.59,5.58,11.62,7.91,17.64.42,1.12-.75,3.79-1.91,4.56-1.75,1.12-4.08,1.29-6.16,1.46-4.16.26-5.41.95-4.33,4.99,1.58,6.11,4.16,11.96,6.58,17.81.42.95,2.25,1.63,3.41,1.63,4.74.17,8.32,2.15,10.99,6.2,3.25,4.99,6.58,9.9,9.74,14.97.58.95.75,2.24.83,3.36.17,2.75-1.25,3.36-3.5,2.49-.42-.17-.75-.52-1.17-.69-6.24-3.53-6.91-3.36-10.57,2.75-1.58,2.67-3.66,3.7-6.33,2.24-2.41-1.38-4.41-.69-6.82.09-4.49,1.38-9.07,2.32-13.73,2.93-3.16.43-5.16,1.38-6.33,4.82-1.91,6.02-4.33,11.96-6.91,17.81-.67,1.46-2.66,2.75-4.24,3.1-2.25.43-4.99.52-7.07-.26-4.24-1.63-8.49-1.63-12.82-1.03-7.74,1.12-14.48-1.46-20.64-5.94-4-2.93-6.66-6.8-7.07-12.05-.08-1.03-.08-2.32-.67-3.1-2.83-4.13-1.08-6.97,2.16-9.55.67-.52,1.17-1.21,1.66-1.81,5.49-6.02,4.41-13.94-3-17.47-6.41-3.1-7.41-9.29-9.07-15.06-.25-.86,1.66-2.93,3-3.53,3.25-1.55,6.74-2.41,9.99-3.79,5.33-2.32,8.41-6.54,8.91-12.48.33-3.79,2.16-6.11,5.16-7.74,4.74-2.67,9.65-4.22,15.07-4.22,2.83,0,5.74-.17,8.57-.6,5.74-.95,8.74-5.25,7.82-11.19-.08-.86-.17-1.72-.42-2.41-3-6.97-.58-12.56,4-17.81,2.58-3.01,5.08-6.2,6.99-9.64.92-1.72,1.17-4.3.67-6.28-.5-2.24-.08-3.61,1.41-4.99,2-1.72,4.08-3.44,6.08-5.25,2.33-2.07,3.83-1.64,3.91,1.64.25,4.99,2.16,9.04,4.49,13.17,1.83,3.36,4.66,4.3,7.66,5.42.58.43,1,.69,1.83,1.12Z"/>
  <path class="cls-1" d="M86.58,117.4c1.25.6,1.75.77,2.16,1.12,4.49,3.79,4.74,3.79,8.91-.52,1-1.03,2.25-1.98,2.66-3.18.5-1.46.92-3.44.33-4.73-3.33-7.4-6.99-14.63-10.32-22.03-1.91-4.13,0-10.76,3.5-13.51,2.58-2.07,5.58-1.2,7.74,2.32.75,1.2,1.17,2.58,1.5,3.96.5,1.89,1.08,3.44,3.33,3.27,2.33-.17,3.83-1.29,4.24-3.79.67-4.22,1.08-8.52,2.33-12.56.92-3.27,3.08-6.11,4.41-9.21,2-4.73,3.75-9.64,5.66-14.37.42-1.12,1.25-2.07,1.91-3.1.83.77,1.67,1.46,2.41,2.24.33.34.5.77.75,1.2,4.91,8.61,6.33,9.04,14.98,4.82.75-.34,1.41-.77,2.16-1.12,3.41-1.46,4.16-1.03,5.41,2.75.67,1.89,1.42,3.96,2.75,5.16,1.08.86,3.41,1.03,4.83.43,1.91-.77,2.75-2.84,1.58-5.08-1.17-2.15-1.42-4.04-.25-6.37.33-.77-.5-2.24-.92-3.27-.92-2.32-2.5-4.56-2.75-6.97-.33-2.93,1.91-4.73,4.41-3.53,5.24,2.41,10.24,5.16,15.15,8.18,1,.6,1.41,2.84,1.33,4.3-.17,4.39-.5,8.78-1,13.08-.42,3.36-1,6.8-2,9.98-2,6.71-.67,12.91,1.91,18.93.83,2.07,2.58,2.15,4.66,1.64,2.08-.6,4.33-.6,6.41-.95-.67,2.15-1.08,4.47-2.08,6.45-3.66,7.4-5.33,15.06-.83,22.29,5.16,8.17,11.65,15.15,19.73,20.48,3.49,2.32,6.74,4.99,10.07,7.49-.17.43-.33.77-.42,1.2-1.08.09-2.08.35-3.16.35-4.33.17-8.74.52-13.07.26-3.16-.17-6.24-1.29-9.32-1.63-1.66-.17-3.66-.43-4.91.34-3.33,1.98-6.41,1.98-9.82.69-4.16-1.55-8.49-2.84-12.73-4.04-2.83-.77-5.16-1.81-6.41-4.73-1.17-2.5-3.25-3.1-5.74-2.67-4.33.6-8.49,2.15-13.15.77-1.83-.52-4.74.95-6.49,2.32-4.41,3.7-7.74,8.18-6.66,14.63.08.69.17,1.46,0,2.15-.33,1.29-.83,3.36-1.42,3.44-1.25.17-2.91-.52-3.83-1.38-2.16-2.15-3.91-4.65-5.83-6.97-2-2.41-4.08-4.82-6.16-7.14-2.08-2.24-4.49-3.53-7.66-3.1-1.17.17-3.08-.34-3.66-1.29-3.83-5.42-6.24-11.44-6.66-19.02Z"/>
  <path class="cls-1" d="M444.23,345.62c3.08.95,6.33,1.55,9.16,3.1,2.75,1.38,3.08,3.96.92,6.45-2.08,2.5-4.16,5.08-6.24,7.57-5.24,6.28-4.83,12.39,2.08,16.61,6.33,3.87,13.23,6.97,20.14,9.81,11.15,4.56,22.81,8,33.79,12.91,7.82,3.53,14.9,8.78,22.56,12.82,7.41,3.96,15.23,7.06,22.47,11.36,11.15,6.63,20.22,15.83,28.38,26.07,2.5,3.18,4.08,6.71,2.41,11.1-1.58,4.13-2.5,8.61-4.08,12.74-1,2.75-2.91,3.36-5.83,2.07-5.83-2.67-9.24-7.14-10.9-13.34-.58-2.15-1.41-4.22-2.25-6.28-2.41-6.28-6.91-9.12-13.48-9.47-6.16-.34-12.23-1.64-18.31-2.93-2.33-.52-5.83-1.03-3.16-5.33.25-.34-1.33-2.84-2.16-2.84-6.41-.34-12.82-.17-18.48,3.87-3.91,2.75-5.33,2.24-6.99-2.5-1-2.93-1.75-5.85-2.58-8.86-1.75-6.37-6.49-9.29-12.32-6.63-4.24,1.98-6.74.95-9.82-2.24-3.08-3.27-7.07-5.59-10.4-8.52-1.5-1.29-2.91-3.01-3.66-4.9-2.08-5.08-3-6.02-8.41-6.02-6.16,0-12.4.35-18.56.52-1.58.09-3.25.17-4.83.09-5.41-.43-6.33-1.81-6.24-7.4,0-1.46-.92-3.61-2-4.3-3.33-2.07-5.99-4.39-7.41-8.35-.91-2.5-3.33-4.48-4.91-6.8-3.16-4.3-2.66-5.94,1.58-9.04,1.41-1.03,2.41-3.01,2.83-4.82.58-2.5.42-5.16.75-7.74.33-3.01,2.25-4.56,5.08-4.9.33-.09.67-.09,1-.09,9.9-1.03,19.89-1.98,29.8-3.01-.08-.26,0-.52.08-.77Z"/>
  <path class="cls-1" d="M292.92,93.91c-2.41-1.46-4.49-3.61-5.66-3.18-1.5.52-2,3.44-3.33,4.91-2.16,2.41-4.66,4.56-7.16,6.54-3.58,2.93-7.49,5.51-10.99,8.52-4.08,3.53-5.83,8.35-6.16,13.85-.08,2.15-.75,4.22-.75,6.28,0,1.29.42,2.75,1.16,3.79,1.67,2.41,3.91,4.39,5.41,6.88.75,1.21.83,3.61.17,4.73-1.08,1.72-3,1.38-4.91.26-8.66-5.42-17.9-5.34-27.13-2.07-3.75,1.29-7.08,1.72-10.57-.34-3.58-2.07-7.32-4.04-10.65-6.45-7.32-5.42-14.48-11.19-21.81-16.69-6.74-5.16-9.07-18.93-4.41-26.25,1.25-1.98,2.75-2.58,4.99-1.98,2.16.69,4.41,1.2,6.66,1.64,6.08.95,8.49-.34,10.4-6.45,1.58-5.08,4.49-8.86,8.66-11.96,2.83-2.15,5.66-3.01,8.99-1.72,2.75,1.03,4.24,0,4.58-2.93.33-3.27,2.25-4.91,5.08-6.02,6.91-2.67,8.66-7.66,4.58-14.03-3.74-5.85-3.41-13.42,3.08-17.99,3.66-2.5,7.16-4.39,11.57-4.65,4.16-.26,8.32-1.64,12.49-2.15,3.25-.34,6.57-.09,10.99-.09-1.5,1.89-2.16,2.84-3,3.7-4.41,4.99-8.91,9.9-13.15,15.06-3.91,4.82-3.83,8.09.58,12.39,2.83,2.75,3.66,5.08,1.66,8.86-1.91,3.44-1.33,7.06,1.58,10.07,1.16,1.2,2.08,2.75,3,4.3,2.33,3.96,6.16,5.25,10.32,3.44,6.16-2.67,11.65-.6,13.65,5.34.67,1.12.17,2.75.08,4.39Z"/>
  <path class="cls-1" d="M458.47,616.69c-7.66.26-11.4-6.45-8.07-14.8.75-1.81,1.91-3.53,3.08-5.08,5.49-7.32,8.07-15.32,5.83-24.53-.67-2.84.42-4.65,2.66-5.85,1.92-1.03,3.99-1.81,5.91-2.84,3.99-2.07,5.91-5.85,7.32-9.9.25-.69.08-1.72-.33-2.32-6.16-9.12-8.49-19.79-12.07-30.03-2.91-8.35-7.33-16.01-10.82-24.18-1.58-3.7-2.58-7.57-3.33-11.53-.75-3.87.83-5.25,4.33-3.79,5.74,2.41,11.49,3.87,17.73,3.27,4.99-.52,6.58-1.81,7.74-6.8.42-1.81.75-3.7,1.5-5.42.5-1.03,1.75-2.32,2.58-2.24.92.09,2.5,1.46,2.58,2.32.25,3.01.17,6.11-.08,9.12-.25,3.18-1.25,6.28-1.42,9.47-.33,5.94,1.33,8.26,6.58,10.67,5.33,2.41,10.65,4.82,15.9,7.49,5.41,2.75,8.66,7.32,9.41,13.51.75,6.11,1.25,12.22,1.83,18.33.17,2.07-.5,3.18-2.66,3.79-5.16,1.55-10.24,3.36-15.32,5.34-5.91,2.32-9.24,6.63-9.15,13.51.08,5.34-.25,10.67-.58,16.01-.17,3.44-1.41,6.45-4.66,8.17-6.33,3.27-9.49,9.04-11.82,15.49-.08.34-.17.69-.25,1.03-2.5,9.98-4.33,11.45-14.4,11.79Z"/>
  <path class="cls-1" d="M176.31,74.29c.5-2.67,1.25-6.02,1.75-9.38,1-7.4,2-14.8,2.75-22.2.17-1.29-.5-2.67-1-3.96-2.16-5.16-4.66-10.24-6.49-15.49-1.17-3.36,1.08-6.11,3.33-8.35,2.16-2.15,4.08-.52,6.33.09,4.83,1.29,9.74,2.24,14.65,3.1.83.17,2.5-.69,2.66-1.46,3.25-10.33,11.49-11.7,20.14-12.82,7.91-1.03,15.81-2.67,23.72-3.79,1.08-.17,3.16.69,3.41,1.55,2.33,6.71,7.24,11.45,11.32,16.78,1,1.29,1.42,3.01,2.08,4.56-1.67.69-3.25,1.81-4.91,1.89-2.08.17-4.33-.43-6.41-.95-2.41-.6-4-.17-5.33,2.32-1.25,2.32-3.08,4.39-5.08,6.02-4.74,3.87-6.66,12.05-3.83,17.81.75,1.55,1.66,3.1,2.33,4.73,1.42,3.61.5,6.02-3,7.31-3.08,1.12-5.49,2.5-6.16,6.28-.17.95-2.33,2.32-3.5,2.24-8.66-.6-13.73,4.13-16.9,11.7-1.41,3.36-3.08,6.37-6.49,7.92-3.25,1.55-5.74.6-7.41-2.67-2.91-5.94-5.66-7.06-11.65-4.56-3.5,1.46-5.16.52-5.83-3.44-.33-1.38-.33-2.93-.5-5.25Z"/>
  <path class="cls-1" d="M427.67,478.31c-1.25-.77-2.75-1.55-4.16-2.5-4.24-2.75-8.74-5.08-12.57-8.43-1.91-1.63-2.75-4.9-3.66-7.57-2-5.76-3.66-11.62-5.66-17.38-.5-1.46-1.75-2.75-2.75-4.04-2.25-2.93-4.83-4.22-8.41-2.24-1.08.6-2.33.86-3.58,1.29-2.91,1.03-5.41.26-6.58-2.75-2.5-6.45-7.49-8.95-13.65-8.69-6.74.34-10.32-2.58-12.49-9.04-1.66-4.99-4.74-9.47-6.91-14.29-.66-1.46-.75-3.44-.5-5.08.58-3.01,1.67-5.85,2.41-8.86,1-3.53,2.16-4.04,4.74-1.64,1.5,1.38,2.5,1.03,3.66-.43,4.91-6.11,4.99-6.11,12.23-3.27,1.25.52,2.66.77,3.83,1.55,7.24,4.65,14.23,2.67,21.31-.52,1.08-.43,2.08-.95,3.16-1.46,4.83-2.24,5.83-1.55,7.91,3.36,1,2.32,3.08,4.3,4.99,6.11,1.83,1.72,3.08,3.18,1.92,6.02-1.17,2.93.75,5.42,4.58,6.45,2.33.6,4.83.52,7.07,1.29,1.75.6,4.41,2.15,4.49,3.36.17,2.15-.92,4.99-2.41,6.37-5.16,4.65-6.08,5.16-3,11.45,3.99,8.26,9.07,16.09,13.82,24.01,1.33,2.24,2.91,4.22,4.41,6.28,4.16,5.77,1.92,9.98-2.66,13.68-2.83,2.32-6.16,4.04-9.24,5.94-.5.52-1.25.6-2.33,1.03Z"/>
  <path class="cls-1" d="M445.23,404.57c4.91.35,6.16,1.46,7.57,6.37.42,1.46,1.58,2.84,2.75,3.79,5.08,3.96,10.4,7.66,15.48,11.62,2.41,1.89,4.49,2.84,7.74,1.63,7.66-2.92,8.91-1.89,11.07,6.11.92,3.53,2.5,6.89,4.16,10.07,1.42,2.84,1.67,5.51.67,8.52-2.25,6.88-5.41,12.65-13.07,14.72-1.67.43-3.41,3.1-3.99,5.08-1.42,4.39-3.83,7.49-7.91,9.21-3.41,1.46-6.41,1.29-9.65-1.03-2-1.46-5.08-1.55-7.66-1.89-1.08-.17-2.25.52-3.33.77-3.83.69-5.24-.77-4.33-4.65.83-3.53,2.25-6.97,2.83-10.58.33-1.89,0-4.39-1-5.85-5.58-8.52-11.57-16.78-17.31-25.13-.33-.52-.67-.95-1.08-1.38-3.91-4.48-3.75-5.85-.33-10.84,2.16-3.1,3.58-6.8,5.58-9.98,1.08-1.72,2.5-3.53,4.16-4.3,2.33-1.38,5.08-1.64,7.66-2.24Z"/>
  <path class="cls-1" d="M322.79,32.55c-3.08,2.84-5.83,5.34-8.49,7.92-1.16,1.12-2.75,2.07-3.33,3.53-.83,1.89-1.67,4.22-1.33,6.11.42,2.5,2.41,3.79,5.16,3.7,1.17-.09,2.41.6,3.58,1.03,2.16.86,2.41,2.32,1.08,4.22-1.17,1.72-2.41,3.44-3.5,5.25-1.33,2.24-.83,4.22,1.58,5.16,2.83,1.12,3.16,2.67,2,5.51-1,2.5-1.5,5.25-1.75,7.92-.33,3.01-1.75,3.96-4.41,3.27-5.33-1.38-10.65-2.75-16.23-.52-.83.34-3-.77-3.49-1.81-1.67-3.61-4.49-4.04-7.74-3.79-2.66.26-5.24.52-7.91.6-7.24.26-13.15-8.09-10.65-15.06,1.58-4.47.42-8.26-2.91-11.27-2.33-2.07-2.58-4.04-.58-6.28,3-3.44,5.99-6.8,9.07-10.07,2.08-2.24,4.16-4.39,6.49-6.28,1.42-1.2,3.33-2.67,4.91-2.58,11.82.6,23.55,1.55,35.37,2.41.92.09,1.67.6,3.08,1.03Z"/>
  <path class="cls-1" d="M96.9,181.08c-1.91,1.03-4.74,1.72-6.58,3.61-7.32,7.49-15.15,14.71-21.14,23.24-7.16,10.24-16.65,14.71-28.05,16.44-1.08.17-2.58-.43-3.25-1.2-.42-.52.08-2.24.58-3.1,2.75-4.65,5.58-9.29,8.57-13.68.67-.95,2.41-1.46,3.75-1.55,1.66-.09,3.41.6,5.08.6,4.74.09,7.99-2.24,8.41-7.06.58-6.63,4.33-11.62,7.07-17.12.5-.95,1.83-1.72,2.91-1.98,4.83-1.21,9.74-2.32,14.65-3.27,1.83-.34,3.91-.52,5.66,0,3.91,1.12,5.66.77,7.91-2.67.67-.95,1.17-2.07,1.75-3.1,1.42-2.32,3.25-3.1,5.33-1.12,3.08,2.93,6.66,3.18,10.57,3.01,6.66-.17,8.07,1.29,8.32,8.17.08,2.41,1.42,3.36,3,4.73,5.24,4.56,10.4,9.29,15.48,14.03.67.6.67,1.98,1,3.1-1,.09-2,.52-2.91.26-1.83-.6-3.66-1.29-5.33-2.32-10.99-6.63-21.89-13.42-34.29-16.95-2.41-.77-4.99-1.29-8.49-2.07Z"/>
  <path class="cls-1" d="M382.64,384.43c-3.16-.95-6.74-1.89-10.32-3.18-4.74-1.72-9.24-4.22-14.57-2.41-.75.26-3.16-1.72-3.08-2.58.17-2.75.75-5.59,1.91-8.09,1-2.24,2.83-3.96,4.16-6.02.5-.77,1.25-2.15.92-2.75-1.08-2.07-.83-3.96,1-4.82,1.83-.86,4.24-1.55,5.99-.95,1.83.6,3.41,2.67,4.58,4.39,2.25,3.44,2.41,3.61,4.91.26,3-3.87,5.83-7.92,8.82-11.79,2.66-3.36,6.08-4.82,10.4-3.7,3.91,1.03,6.41,3.53,6.91,7.49.5,3.61.67,7.32.17,10.84-.25,1.89-1.92,3.87-3.5,5.08-1.92,1.46-2.83,2.84-2.66,5.25.58,8.43.58,8.52-7.32,10.93-2.41.95-4.99,1.29-8.32,2.07Z"/>
  <path class="cls-1" d="M5.6,83.84c3.5-1.03,6.24-2.07,9.07-2.75,8.57-1.98,17.23-3.79,25.8-5.68,6.74-1.46,12.24,1.89,13.65,8.86.75,3.53.83,7.23,1.25,10.93.25,2.07-.67,2.93-2.66,3.27-10.07,1.64-20.06,3.36-30.13,4.99-6.58,1.12-6.74.69-8.66-5.94-.92-3.18-3-6.02-4.66-8.95-.75-1.46-1.91-2.67-3.66-4.73Z"/>
  <path class="cls-1" d="M281.77,214.04c-2.91-4.04-5.83-8.26-9.15-11.96-7.24-8.09-11.07-17.56-11.9-28.4-.58-7.4-1.66-14.8-2.33-22.29-.25-3.18-1.42-4.99-4.74-5.42-3.5-.43-6.99-1.38-10.49-1.81-1.66-.17-3.49.34-5.08.95-2.66.95-5.24,3.27-7.74,3.18-14.4-.6-28.8-1.72-43.28-2.49-1.25-.09-2.91.43-3.66,1.29-2.33,2.67-4.83,2.58-7.82,1.55-6.57-2.41-13.23-4.56-19.81-7.06-1.33-.52-2.83-1.72-3.5-3.01-1.42-2.84-3.08-2.58-5.66-1.89-3,.86-6.33,1.55-9.24.95-6.08-1.38-10.49.77-11.74,7.14-.92,4.9-1.25,9.81-1.75,14.8-.33,2.67-.75,5.16-3.83,6.11-.67.17-1.17.69-1.75,1.12.17.34.33.6.5.95,2,.43,4,.95,5.99,1.29,4.41.6,6.41,3.7,7.49,7.74,1.25,4.82,4.58,6.54,9.16,4.56,1.17-.52,2.25-1.2,3.5-1.46,3.33-.6,6.16-.09,9.24,2.24,6.24,4.82,13.23,8.43,19.64,12.99,4.66,3.36,9.07,6.54,15.15,6.11,2.5-.17,5.33,1.55,7.74,1.12,6.49-1.21,13.23-1.55,18.89-5.85,2.66-2.06,5.49-1.81,8.49-.43,3.25,1.46,6.49,2.93,9.9,3.87,3.25.86,4.49,2.41,3.58,5.77-.33,1.12-.33,2.41-.67,3.44-1,3.01-.25,5.68,1.66,7.92,1.66,1.89,3.41,3.96,5.58,5.25,6.99,4.22,7.16,2.58,10.15-2.67,1.33-2.24,2.83-4.82,4.91-6.11,2.91-1.81,6.33-2.75,9.65-3.61,4.33-1.21,5.41-.52,7.57,3.7.58,1.12,1.25,2.41,2.16,3.1,1,.69,2.41.69,3.58,1.03-.08-1.46.17-2.93-.42-3.7Z"/>
  <path class="cls-1" d="M257.79,234.87c2.16-4.65,1.41-5.94-3.58-6.8-6.49-1.12-12.32-3.96-17.06-8.52-2.16-2.07-4.08-5.42-4.49-8.35-1.25-9.38-10.65-14.37-18.56-9.81-8.07,4.65-16.65,6.8-25.39,1.38-.58-.34-1.75-.6-2.25-.26-4.16,3.01-6.99,0-10.15-2.15-8.99-6.11-18.06-12.13-26.97-18.33-2.58-1.72-4.33-.43-6.08,1.21-1.66,1.55-2,3.53-.58,5.42,5.49,7.23,11.24,14.29,16.65,21.69,2.5,3.44,5.08,7.06,6.41,11.1,2.75,7.92,4.24,16.26,6.99,24.1,3.49,10.07,9.32,19.28,8.99,30.64-.08,2.84,1.91,4.3,4.74,4.65,3.41.34,6.24,2.15,6.24,5.85,0,4.22,1.75,6.54,5.33,8,1.25.52,2.41,1.46,3.33,2.5,3.83,4.82,7.66,9.64,11.07,14.8,2.41,3.61,5.08,6.02,9.49,5.94,5.74-.26,8.74-2.24,8.74-8,0-1.29,1-3.1,2.08-3.79,4.74-3.1,6.41-7.4,6.08-12.99-.17-2.32.58-4.56,3.25-5.16,4.24-1.03,5.49-4.05,5.58-8.18.17-4.73.25-9.47,1.08-14.11.33-2.07,1.83-4.47,3.49-5.68,4.16-2.93,4.5-3.27,1.33-7.57-2.25-3.01-2.33-5.68-.42-8.78,1.66-2.93,3.25-5.85,4.66-8.78Z"/>
  <path class="cls-1" d="M348.77,369.2c-4.33-4.82-9.49-7.49-16.15-7.23-4.83.17-9.99-1.03-12.4-5.25-3.33-5.76-7.74-8.69-13.65-10.33-1.41-.35-3.16-1.81-3.66-3.18-2-5.25.67-8.95,6.08-9.04,1.17,0,2.33,0,3.41.17,2.66.34,3-.86,2.08-3.18-1.66-3.87-3.41-7.74-4.83-11.79-3.25-9.29-2.66-11.36,4.58-16.95.17-.17.5-.26.5-.43.17-1.2.83-2.84.33-3.61-.5-.77-2.5-1.38-3.33-.95-6.08,3.53-12.15,7.06-17.98,11.02-5.08,3.44-9.65,7.57-14.73,11.01-1.17.77-3.91.95-4.83.09-4.74-4.39-9.07-9.29-13.65-13.85-1.33-1.38-2.91-3.18-4.58-3.44-5.08-.86-8.74-2.75-8.82-8.86,0-.69-1-1.38-1.58-2.07-.75.6-2,1.2-2.08,1.89-.67,6.71-5.49,11.1-8.24,16.52-1.41,2.84-2.66,6.89-1.83,9.72,2.91,9.47,6.74,18.59,15.56,24.27,6.49,4.22,12.32,9.12,15.15,16.87.42,1.03,1.17,2.07,2,2.84,9.16,8.17,17.15,17.81,28.05,23.75,3.5,1.89,6.74,4.56,10.15,6.63,1.41.86,3.16,1.72,4.74,1.72,7.49.17,15.07.09,22.56.09v.6h5.16c4.58.09,7.41-2.07,8.82-6.8,1-3.27,2.58-6.28,4.16-9.29,2.58-4.22,2.41-6.97-1-10.93Z"/>
  <path class="cls-1" d="M149.01,456.2c.92-2.41,2.16-5.59,1.33-7.66-3-7.66-6.57-15.06-10.24-22.37-1.08-2.24-3.5-3.79-1.92-6.88.33-.69-.58-2.15-1.08-3.18-3.16-6.97-9.15-10.93-15.15-15.75-1.58,2.49-2.66,5.16-4.5,7.14-3.66,3.87-7.82,7.32-11.74,10.93-7.24,6.71-15.23,11.36-25.3,10.84-1.5-.09-3,.09-4.49.26-5.41.6-6.99,3.62-4.41,8.52,1.25,2.41,2.75,4.65,4.24,6.88,6.99,10.41,10.32,21.86,9.41,34.51-.08,1.72-.58,3.53-1.33,5.08-1.91,3.7-1.5,5.08,1.83,7.66,1.5,1.12,3.16,3.27,3.16,4.91-.17,4.9-.42,9.98-2,14.54-2.91,8.78-5.16,17.73-3.66,26.85,1.66,10.15,6.74,18.59,15.9,23.66,3.99,2.15,6.74,1.55,9.07-2.49,1.83-3.18,2.83-6.89,3.83-10.5.92-3.53,2.75-5.77,6.08-7.06,5.16-1.98,9.57-.86,13.98,2.15,5.24,3.61,6.99,2.75,8.49-3.53.08-.43.25-.95.33-1.38,2-17.38,3.99-34.85,6.08-52.24.42-3.79,0-7.23-2.16-10.41-2.33-3.61-1.91-7.49-.17-11.19,1.25-3.18,3.16-6.11,4.41-9.29Z"/>
  <path class="cls-1" d="M300.74,284.18c-3.83-1.21-5.74-3.44-6.82-7.06-1.83-6.37-3.58-12.74-5.66-19.02-1.42-4.3-3.25-8.43-7.66-10.41-2.58-1.2-5.24-2.41-7.91-3.44-3.49-1.46-6.99-2.84-10.82-4.39-1.08.86-2.66,1.46-2.83,2.32-.75,3.7-3.33,7.23-.25,11.27,2.16,2.84,1.08,4.56-1.75,6.63-1.91,1.46-4.33,3.53-4.74,5.59-1.58,9.21-5.33,18.16-1.66,27.97,1.41,3.7,3.08,4.99,6.41,5.59,1.58.26,3.74,1.03,4.33,2.24,3.25,6.97,10.57,9.64,14.98,15.32,1.17,1.46,2.58,1.72,3.91-.35,4.74-7.4,11.32-12.48,19.06-16.18,3.49-1.63,6.66-4.04,9.74-6.45.83-.69,1.25-3.53.83-3.96-2.83-2.07-5.74-4.56-9.15-5.68Z"/>
  <path class="cls-1" d="M340.36,276.35c-1.75-5.68-3.16-11.36-5.16-16.95-3.83-10.67-8.82-20.31-18.73-26.76-8.82-5.68-16.98-12.39-25.47-18.67-.92-.69-1.83-1.29-2.83-1.98-.58.86-1,1.38-1.33,1.98-4.66,7.66-5.74,8-13.73,4.13-.75-.35-1.41-.69-2.16-1.12-5.49-3.27-8.41-2.84-12.4,2.24-.83,1.03-1.08,2.5-1.58,3.7,1.17.52,2.33,1.2,3.66,1.46,1.33.34,2.75,0,4.08.34,2.25.6,3.25,2.32,1.66,4.22-2.66,3.18-3.5,5.25,1.17,7.23,4.91,2.07,9.4,5.25,14.4,7.32,3.08,1.29,5.58,2.93,6.74,6.11,1.58,4.47,2.91,8.95,4.24,13.51,2,6.71,3.08,14.37,10.07,17.3,6.24,2.58,11.24,5.59,13.9,12.22.75,1.89,2.83,2.41,4.25.69,4.33-5.16,10.24-7.4,16.06-9.9,2.91-1.12,4.16-3.61,3.16-7.06Z"/>
  <path class="cls-1" d="M408.32,702.4c-2.41-.43-6.16-.86-9.82-1.72-5.91-1.38-10.65-4.91-13.57-10.24-3.83-6.88-9.74-9.47-16.65-11.27-7.24-1.89-14.65-3.53-21.31-6.71-7.91-3.79-15.32-9.04-22.64-14.03-8.57-5.85-17.81-9.9-28.05-10.84-5.58-.52-9.9-3.1-13.9-6.71-.33-.34-.67-.69-.92-1.03-4.49-7.83.83-22.38,9.24-24.61,1.66-.43,3.91.26,5.49,1.21,6.58,3.79,9.24,3.44,13.73-3.01,2.58-3.7,5.99-5.08,9.9-5.42,1.25-.17,2.75,1.03,3.99,1.81,1.67,1.03,3.08,2.41,4.74,3.36,2.08,1.2,4.41,1.89,6.41,3.27,4.74,3.27,9.57,5.25,15.48,4.22,9.57-1.72,19.31-2.84,28.88-4.39,3.91-.6,7.82-1.72,11.74-2.75.83-.26,1.83-.6,2.41-1.29,3.5-4.13,8.24-4.73,12.98-4.22,9.57.95,17.65-2.67,25.22-8.17,1.33-.95,2.58-1.98,3.99-2.67.83-.43,2.16-.86,2.75-.43.58.43.83,1.98.5,2.75-1.08,3.27-2.25,6.45-3.75,9.55-1.91,3.87-3.83,7.83-6.33,11.45-5.99,8.69-8.16,19.02-11.07,28.91-1.33,4.48.17,8.6,2,12.65,2.66,5.59,5.08,11.36,7.32,17.12.42,1.12.08,2.84-.42,3.96-2.25,4.99-4.91,9.9-7.07,14.97-2.16,4.9-6.16,4.22-11.32,4.3Z"/>
  <path class="cls-1" d="M381.9,329.96c-3.16-2.07-6.33-4.3-9.16-6.8-11.57-10.58-22.22-21.94-28.88-36.66-.92-2.15-2.08-2.5-3.99-1.29-2.66,1.64-5.33,3.27-7.99,4.82-5.08,2.93-9.32,6.63-11.98,12.22-.83,1.81-3.08,3.1-4.91,4.13-4.41,2.32-5.41,3.96-3.58,8.69,2,5.16,4.41,10.07,6.82,15.06,1.92,3.96.92,6.11-3.33,6.63-1.33.17-2.83-.17-4.08.17-1.58.43-3,1.29-4.5,1.89.83,1.38,1.42,3.18,2.66,4.13,5.58,4.48,11.4,8.78,17.15,12.99,1.33,1.03,3.08,2.24,4.58,2.15,6.33-.6,11.57,2.32,17.06,4.56,3.91,1.55,5.83,1.03,8.32-2.41,1.83-2.58,3.41-5.34,5.24-7.92,2.58-3.7,4.16-4.05,8.16-2.15,2,.95,3.91,1.98,5.99,2.5,1.08.26,3-.09,3.58-.95,3.33-4.39,5.49-9.47,6.41-15.06.17-3.1-1.08-5.08-3.58-6.71Z"/>
  <ellipse class="cls-2" cx="419.1" cy="459.83" rx="6.5" ry="6.83"/>
  <ellipse class="cls-2" cx="364.1" cy="411.83" rx="6.5" ry="6.83"/>
  <ellipse class="cls-2" cx="334.1" cy="362.83" rx="6.5" ry="6.83"/>
  <ellipse class="cls-2" cx="334.1" cy="327.83" rx="6.5" ry="6.83"/>
  <ellipse class="cls-2" cx="484.1" cy="541.83" rx="6.5" ry="6.83"/>
  <ellipse class="cls-2" cx="400.1" cy="648.83" rx="6.5" ry="6.83"/>
  <ellipse class="cls-2" cx="123.1" cy="186.83" rx="6.5" ry="6.83"/>
  <ellipse class="cls-2" cx="245.1" cy="57.83" rx="6.5" ry="6.83"/>
  <ellipse class="cls-2" cx="30.1" cy="97.83" rx="6.5" ry="6.83"/>
  <ellipse class="cls-2" cx="179.1" cy="271.83" rx="6.5" ry="6.83"/>
  <ellipse class="cls-2" cx="233.1" cy="216.83" rx="6.5" ry="6.83"/>
  <ellipse class="cls-2" cx="130.1" cy="406.83" rx="6.5" ry="6.83"/>
</svg>